<?xml version="1.0" encoding="UTF-8" standalone="no"?>
<svg xmlns:dc="http://purl.org/dc/elements/1.1/" xmlns:cc="http://creativecommons.org/ns#" xmlns:rdf="http://www.w3.org/1999/02/22-rdf-syntax-ns#" xmlns:svg="http://www.w3.org/2000/svg" xmlns="http://www.w3.org/2000/svg" xmlns:xlink="http://www.w3.org/1999/xlink" version="1.1" width="128" height="38" id="svg2">
  <defs id="defs4">
    <linearGradient id="linearGradient3771">
      <stop id="stop3773" style="stop-color:#000000;stop-opacity:1" offset="0" />
      <stop id="stop3775" style="stop-color:#404040;stop-opacity:1" offset="1" />
    </linearGradient>
    <linearGradient x1="16.000017" y1="15.931963" x2="26.723188" y2="15.931963" id="linearGradient3050" xlink:href="#linearGradient3771" gradientUnits="userSpaceOnUse" gradientTransform="matrix(2.5624963,0,0,2,-1105.3621,-96)" />
  </defs>
  <g transform="translate(8.0000004e-8,-1026.3622)" id="layer1">
    <path d="m -1064.3622,-128 25.9166,0 c 0,0 10.5841,11.66505 11.4819,28.802392 0.8978,17.137342 -19.409,52.102777 -19.5159,69.26143 C -1046.5865,-12.777525 -1038.4456,8.00005e-8 -1038.4456,8.00005e-8 L -1064.3622,0 z" transform="matrix(0,-1,-1,0,0,0)" id="rect2991" style="opacity:0.8;fill:url(#linearGradient3050);fill-opacity:1;stroke:none" />
    <g transform="translate(0,23.132501)" id="g3807" style="opacity:0.16000001">
      <path d="m -8.0000004e-8,1015.3131 c 0,0 12.798322080000005,10.432 29.936178080000004,11.1759 17.137856,0.7439 52.417352,-19.3722 69.26143,-19.3388 16.844072,0.034 28.802392,8.1629 28.802392,8.1629 0,0 -11.82868,-10.5731 -28.802392,-11.4819 -16.97371,-0.9091 -52.23226,19.4084 -69.26143,19.5159 C 12.907009,1023.4552 -7.9999998e-8,1015.3131 -7.9999998e-8,1015.3131 z" id="path3779" style="opacity:0.9;fill:#dedede;fill-opacity:0.5;stroke:none" />
      <path d="m 8.8e-7,1022.0541 c 0,0 12.79832212,10.4322 29.93617712,11.176 17.137856,0.7439 52.417352,-19.3722 69.26143,-19.3389 16.844072,0.034 28.802392,8.1629 28.802392,8.1629 0,0 -11.82868,-10.573 -28.802392,-11.4819 -16.97371,-0.909 -52.23226,19.4084 -69.26143,19.516 C 12.90701,1030.1962 8.8e-7,1022.0541 8.8e-7,1022.0541 z" id="path3779-1" style="opacity:0.9;fill:#dedede;fill-opacity:0.5;stroke:none" />
    </g>
  </g>
</svg>