<?xml version="1.0" encoding="UTF-8" standalone="no"?>
<svg xmlns:rdf="http://www.w3.org/1999/02/22-rdf-syntax-ns#" xmlns="http://www.w3.org/2000/svg" height="128" width="128" version="1.1" xmlns:cc="http://creativecommons.org/ns#" xmlns:xlink="http://www.w3.org/1999/xlink" xmlns:dc="http://purl.org/dc/elements/1.1/">
 <defs>
  <linearGradient id="a">
   <stop stop-color="#f2ffdd" offset="0"/>
   <stop stop-color="#64aa00" offset="1"/>
  </linearGradient>
  <linearGradient id="d" y2="128" xlink:href="#a" gradientUnits="userSpaceOnUse" x2="64" x1="64"/>
  <linearGradient id="c" y2="124.93" xlink:href="#a" gradientUnits="userSpaceOnUse" x2="64.22" y1="19.338" x1="64.22"/>
  <linearGradient id="b" y2="13.088" gradientUnits="userSpaceOnUse" x2="25.972" y1="40.278" x1="25.972">
   <stop stop-color="#3c3c3c" offset="0"/>
   <stop stop-color="#fff" offset="1"/>
  </linearGradient>
 </defs>
 <circle stroke-width="2" stroke="#000" cy="64" cx="64" r="62" fill="url(#d)"/>
 <path fill="url(#c)" d="m125.03 64.887c0 34.242-30.216 61.033-61.03 60.183-35.196-0.37-61.113-29.058-61.07-60.055 0.0192-13.599 40.699-23.66 61.07-5.596 25.619 22.719 54.258 10.299 61.032 5.4677z"/>
 <g transform="matrix(1.9791 0 0 1.9791 14.381 -1968.6)">
  <path d="m8.75 30.714s16.374 3.4537 16.607 4.1071c3.1999 8.9676 9.2857 2.8571 9.2857 2.8571s5.994 0.98914 8.2143 0.17857c10.096-3.686 3.659-10.447 1.091-11.494-2.568-1.046-5.657-3.396-8.769-5.47-1.367-0.911-6.321-5.995-9.89-6.955-8.782-2.363-4.89-0.837-15.292-2.006-2.9077-0.327-6.9561 4.152-8.0327 11.671-0.37502 2.6194-0.52275 3.862 0 5.6826 1.9706 6.863 6.7857 1.428 6.7857 1.428z" transform="translate(0 1002.4)" stroke="#000" stroke-width="1px" fill="url(#b)"/>
 </g>
</svg>