<?xml version="1.0" encoding="UTF-8" standalone="no"?>
<svg xmlns:rdf="http://www.w3.org/1999/02/22-rdf-syntax-ns#" xmlns="http://www.w3.org/2000/svg" height="128" width="128" version="1.1" xmlns:cc="http://creativecommons.org/ns#" xmlns:xlink="http://www.w3.org/1999/xlink" xmlns:dc="http://purl.org/dc/elements/1.1/">
 <defs>
  <linearGradient id="a">
   <stop stop-color="#f2ffdd" offset="0"/>
   <stop stop-color="#64aa00" offset="1"/>
  </linearGradient>
  <linearGradient id="d" y2="128" xlink:href="#a" gradientUnits="userSpaceOnUse" x2="64" x1="64"/>
  <linearGradient id="c" y2="124.93" xlink:href="#a" gradientUnits="userSpaceOnUse" x2="64.22" y1="19.338" x1="64.22"/>
  <linearGradient id="b" y2="11.909" gradientUnits="userSpaceOnUse" x2="30.648" gradientTransform="matrix(.94807 0 0 .92864 1.6479 2.3549)" y1="54.239" x1="30.648">
   <stop stop-color="#3c3c3c" offset="0"/>
   <stop stop-color="#fff" offset="1"/>
  </linearGradient>
 </defs>
 <circle stroke-width="2" stroke="#000" cy="64" cx="64" r="62" fill="url(#d)"/>
 <path fill="url(#c)" d="m125.03 64.887c0 34.242-30.216 61.033-61.03 60.183-35.196-0.37-61.113-29.058-61.07-60.055 0.0192-13.599 40.699-23.66 61.07-5.596 25.619 22.719 54.258 10.299 61.032 5.4677z"/>
 <g transform="matrix(1.4958 0 0 1.4958 16.986 17.375)">
  <path stroke-linejoin="round" d="m6.4771 13.324v31.4c7.4892-0.04136 15.676-0.07227 23.165-0.08706 5.4988 3.514-17.339 7.9958-12.647 8.0386 1.5546 0.01416 26.766 0.01458 28.821 0.01873 4.9397 0.01-17.343-4.4384-11.904-8.0494 0 0 22.665 0.07503 23.08 0.07914v-31.4z" stroke="#000" fill="url(#b)"/>
 </g>
</svg>